<svg version="1.1" id="Icons" xmlns="http://www.w3.org/2000/svg" viewBox="0 0 32 32"
    xml:space="preserve">
    <style>.st0{fill:none;stroke:#FFF;stroke-width:2;stroke-linecap:round;stroke-linejoin:round;stroke-miterlimit:10}</style>
    <path
        fill="white"
        class="st0" d="M26 3H9C7.3 3 6 4.3 6 6v0c0 1.7 1.3 3 3 3h17v8"/>
    <path 
        class="st0" d="M19 29H9c-1.7 0-3-1.3-3-3v0V6m20 0H9m1 3v20m20.8-6.8c-1.1.2-2 0-2.4-.7s-.1-1.7.6-2.5c-.9-.9-1.9-1.5-3.1-1.8-.3 1-1 1.8-1.8 1.8s-1.5-.7-1.8-1.8c-1.2.3-2.3.9-3.1 1.8.7.8 1 1.8.6 2.5s-1.4.9-2.4.7c-.3.6-.4 1.2-.4 1.8s.1 1.2.2 1.8c1.1-.2 2 0 2.4.7s.1 1.7-.6 2.5c.9.9 1.9 1.5 3.1 1.8.3-1 1-1.8 1.8-1.8s1.5.7 1.8 1.8c1.2-.3 2.3-.9 3.1-1.8-.7-.8-1-1.8-.6-2.5s1.4-.9 2.4-.7c.2-.6.2-1.2.2-1.8s.1-1.2 0-1.8"/>
    <path
        fill="white" 
        d="M24 25c-.1 0-.3 0-.4-.1s-.2-.1-.3-.2-.2-.2-.2-.3-.1-.3-.1-.4 0-.3.1-.4.1-.2.2-.3c.4-.4 1-.4 1.4 0 .1.1.2.2.2.3s.1.3.1.4 0 .3-.1.4-.1.2-.2.3c-.2.2-.4.3-.7.3"/>
</svg>