<svg xmlns="http://www.w3.org/2000/svg" viewBox="0 0 389 389" xml:space="preserve">
    <path 
        fill="white"
        d="M379 326.035h-18.852c-5.522 0-10 4.477-10 10v14.111h-14.113c-5.522 0-10 4.477-10 10V379c0 5.523 4.478 10 10 10H379c5.522 0 10-4.477 10-10v-42.965c0-5.523-4.478-10-10-10m-212.073 24.111h-58.813c-5.522 0-10 4.477-10 10V379c0 5.523 4.478 10 10 10h58.813c5.522 0 10-4.477 10-10v-18.854c0-5.523-4.478-10-10-10m113.96 0h-58.812c-5.523 0-10 4.477-10 10V379c0 5.523 4.477 10 10 10h58.812c5.522 0 10-4.477 10-10v-18.854c0-5.523-4.478-10-10-10m-227.922 0H38.852v-14.111c0-5.523-4.478-10-10-10H10c-5.522 0-10 4.477-10 10V379c0 5.523 4.478 10 10 10h42.965c5.521 0 10-4.477 10-10v-18.854c0-5.523-4.479-10-10-10M10 290.886h18.852c5.522 0 10-4.477 10-10v-58.812c0-5.523-4.478-10-10-10H10c-5.522 0-10 4.477-10 10v58.812c0 5.523 4.478 10 10 10m0-113.96h18.852c5.522 0 10-4.477 10-10v-58.812c0-5.523-4.478-10-10-10H10c-5.522 0-10 4.477-10 10v58.812c0 5.523 4.478 10 10 10M52.965 0H10C4.478 0 0 4.477 0 10v42.967c0 5.523 4.478 10 10 10h18.852c5.522 0 10-4.477 10-10V38.854h14.113c5.521 0 10-4.477 10-10V10c0-5.522-4.479-10-10-10m227.922 0h-58.812c-5.522 0-10 4.477-10 10v18.854c0 5.523 4.478 10 10 10h58.812c5.522 0 10-4.477 10-10V10c0-5.522-4.478-10-10-10M108.113 38.854h58.813c5.522 0 10-4.477 10-10V10c0-5.523-4.478-10-10-10h-58.813c-5.522 0-10 4.477-10 10v18.854c0 5.523 4.478 10 10 10M379 0h-42.965c-5.522 0-10 4.477-10 10v18.854c0 5.523 4.478 10 10 10h14.113v14.113c0 5.523 4.478 10 10 10H379c5.522 0 10-4.477 10-10V10c0-5.522-4.478-10-10-10m0 212.074h-18.852c-5.522 0-10 4.477-10 10v58.812c0 5.522 4.478 10 10 10H379c5.522 0 10-4.478 10-10v-58.812c0-5.523-4.478-10-10-10m0-113.96h-18.852c-5.522 0-10 4.477-10 10v58.812c0 5.523 4.478 10 10 10H379c5.522 0 10-4.477 10-10v-58.812c0-5.523-4.478-10-10-10"/>
</svg>