<svg version="1.0" xmlns="http://www.w3.org/2000/svg" viewBox="0 0 318 486">
    <g fill="#fff">
        <path
            d="M164.3 17.1c-22.9 2.3-44.3 10-65.8 23.8-1.8 1.1-4.4.1-23.8-9.8C62.8 25 52.6 20 52 20c-2.7 0 .9 19.2 5.1 27.9 2 4.1 5.6 9 9.4 12.8l6.2 6.2-3.9 4.8C48.7 96.8 41.9 124 43.4 173.4l.6 20.8-6.2 6.7c-12.7 13.4-19.3 23.4-23.3 35.2-5.9 17.3-5.8 14.4-6.2 125.8l-.4 102.3 9.3-.4c18.2-.9 51.9-14.8 76.3-31.3 12.6-8.5 12.6-8.5 19-8.5h6.5l4.5 8.9c5.1 10.3 5.7 9.5-8.1 11.5-13.9 2.1-19.4 6.5-19.4 15.4v2.9l9.8.6c5.3.4 25.5.7 44.9.7h35.2l-.6-3.8c-1.6-11.9-4.1-14.2-16.5-15.3-5.1-.5-11.3-1.4-13.8-2.2-4.3-1.2-4.7-1.7-8.7-9.7-2.3-4.7-4.3-8.6-4.3-8.8 0-.1 1.6-.2 3.6-.2 1.9 0 3.3-.4 3-.9s1.5-1.2 4.1-1.6c2.5-.4 8.9-2 14.2-3.5 9-2.7 9.7-2.8 10.9-1.2.7.9 6.3 11.7 12.3 23.9l11 22.3h27.6c26.6 0 27.5-.1 28-2 .3-1.1.9-2 1.4-2 2.5 0-.6-9.7-4.3-13.7-3.5-3.7-8-4.4-20.1-3.2-8.4.9-11.7.9-15.3-.1l-4.5-1.3-8.3-16.4-8.2-16.3 8.5-4.6c28.6-15.4 55.1-41.5 71.2-70.1 18.2-32.2 25.2-60.2 26.6-106.4l.6-20.7-2.6-1.6-2.5-1.7 3.8-8.2c14.1-30.2 13-75.8-2.6-105.7-1.9-3.6-6.1-10.1-9.4-14.5s-6-8.3-6-8.6 1.1-1.2 2.5-1.9c6.2-3.3 14.8-17.4 17-27.6 1.3-6.3 2-17.4 1.1-17.4-.2 0-3.4 1.8-7.2 4.1-6 3.7-37.8 18.9-39.5 18.9-.3 0-3.7-2.1-7.5-4.6-9.6-6.4-16.9-10-28.7-13.9-17.5-5.8-40-8.2-58.4-6.4m-26 60.7c13.3 4.8 24.1 14.5 34.1 30.6 2.7 4.2 5.3 7.6 6 7.6.6 0 3.1-3.2 5.5-7.1C197.1 87.4 215.7 76 237.3 76c21 0 37.3 9 48.1 26.3 9.5 15.2 12.5 31.6 8.7 46.7-7.2 28.6-26.9 47.1-59.7 55.9-25.9 7-29.9 9.6-49.8 32.3l-6.8 7.8-4.2-6.3c-6.1-9.2-22-24.7-28.6-27.9-3-1.4-10.4-4-16.5-5.8-20.1-5.8-40.7-17.1-51.1-28.1-13-13.8-18.7-33.3-15-50.9 4.9-23.5 22.7-43.4 44.2-49.5 7.3-2.1 24.3-1.4 31.7 1.3m143.3 153.4c-.4 7.9-1.2 18.8-1.7 24.3-3.9 38.5-20.2 72.9-47.3 100.1-13.2 13.1-23.5 20.6-39.4 28.4-21.8 10.7-37.9 15.8-53.2 16.7l-9.5.5 3.6-3.8c26-28.3 41.8-66 43.7-104.1l.7-13.1 9.5-10.9c14.9-17 30.2-32.3 34.2-34.4 2.1-1 10.2-3.2 18-4.9 15.1-3.1 26.5-6.5 35.1-10.4 2.8-1.4 5.6-2.5 6.1-2.5.4-.1.5 6.3.2 14.1m-128.8 22.3c1.4 2.5 1.7 6.4 1.6 25 0 18.9-.3 23.4-2.2 32.2-3 14-7.3 25.7-14.4 39.4-13.3 25.8-32.6 46.3-63 66.8C67.1 422 46.2 433 44.2 433c-.6 0 .2-2 1.9-4.5C50 422.7 61 399.7 64.5 390c1.5-4.1 7.6-21.9 13.7-39.5 11.4-33.4 18.9-52.7 19.6-50.6 1.9 5.6-9.1 54.1-18.9 83.9-2.2 6.8-3.9 12.5-3.7 12.8.9.8 16.6-12.7 24.8-21.2 18.8-19.6 30-41.6 36.7-72.3 2.2-10.3 2.6-14.6 3-38.1l.5-26.5 5.5 6c3 3.3 6.2 7.3 7.1 9m-99.2 55.2c1.7 13.6-7.3 50.7-17.8 73.5-3.1 6.8-5.5 9.3-3.8 4 .5-1.5 2.3-10.1 4-19.2 2.9-15.3 6.1-28.6 12.5-51.5 1.4-5 2.5-10 2.5-11.3 0-4.4 1.9-1.2 2.6 4.5" />
        <path
            d="M113.7 105c-19.4 4.9-29.9 26-21.4 43.2 9.5 19.4 33.4 23.9 49.5 9.3 9.6-8.6 12.5-23.2 6.9-34.7-3.2-6.4-10-13.1-16.1-15.9-5.2-2.3-13.8-3.1-18.9-1.9m17.4 16.9c9.3 9.3-4.5 23-14.3 14.2-6.9-6.2-2.5-17.1 7-17.1 3.5 0 4.9.6 7.3 2.9m95.6-15.5c-8.8 3.3-15.9 10.3-19.3 19.2-2.2 5.9-1.6 18.3 1.3 23.9 3.1 5.9 8.9 11.4 15.2 14.4 16.6 7.7 37.6-1.9 42.7-19.7 4.2-14.2-2.8-29.7-16.2-36.3-6-2.9-17.9-3.7-23.7-1.5m20.2 15.2c7.6 6.4 3.4 17.3-6.7 17.4-8 0-12.7-7.9-8.8-14.9 3-5.4 10.6-6.7 15.5-2.5m-72.5 38.1c-2.1 3.2-6.1 9.5-9 13.9-2.9 4.5-5.7 9.1-6.3 10.3-1 1.8-.2 3.8 6.5 14.9 8.8 14.5 10.1 16.2 12.4 16.2 1.2 0 5-5 11-14.1 5.2-7.8 9.3-14.7 9.3-15.3 0-1.5-16.9-29-18.7-30.6-1.3-1-2.1-.2-5.2 4.7" />
    </g>
</svg>